<?xml version="1.0" standalone="no"?>
<!DOCTYPE svg PUBLIC "-//W3C//DTD SVG 20010904//EN"
 "http://www.w3.org/TR/2001/REC-SVG-20010904/DTD/svg10.dtd">
<svg version="1.0" xmlns="http://www.w3.org/2000/svg"
 width="1024.000000pt" height="1024.000000pt" viewBox="0 0 1024.000000 1024.000000"
 preserveAspectRatio="xMidYMid meet">
<metadata>
Created by potrace 1.11, written by Peter Selinger 2001-2013
</metadata>
<g transform="translate(0.000000,1024.000000) scale(0.100000,-0.100000)"
fill="#000000" stroke="none">
<path d="M1974 7585 c-72 -16 -92 -31 -266 -197 -180 -171 -201 -204 -202
-312 0 -51 6 -84 20 -116 22 -48 118 -146 1225 -1257 l577 -579 -642 -646
c-1254 -1265 -1151 -1157 -1168 -1213 -14 -46 -16 -120 -4 -172 11 -48 42 -88
144 -187 245 -238 264 -251 377 -251 56 0 80 5 118 25 72 37 2300 2267 2329
2330 14 31 21 66 21 111 1 127 64 58 -1185 1305 -969 967 -1140 1134 -1178
1148 -61 22 -105 25 -166 11z"/>
<path d="M4957 3476 c-84 -30 -153 -101 -176 -181 -12 -39 -11 -487 0 -527 11
-37 65 -110 100 -134 79 -55 -21 -52 1892 -51 l1778 0 47 22 c82 38 141 112
156 198 11 59 8 443 -4 485 -21 80 -89 154 -167 185 -39 15 -186 17 -1815 16
-1464 0 -1780 -2 -1811 -13z"/>
</g>
</svg>
